# xmcd CD database file
#
# Track frame offsets:
#	150
#	12108
#	25068
#	38499
#	53520
#	65582
#	77948
#	90599
#	104428
#	116350
#	127913
#	140088
#	152115
#	165856
#	179954
#
# Disc length: 2552 seconds
#
# Revision: 0
# Processed by: cddbd v1.5.2PL0 Copyright (c) Steve Scherf et al.
# Submitted via: CDex 1.51
#
DISCID=b909f60f
DTITLE=Patsy Cline - Chartbuster Karaoke Vol. 3
DYEAR=2007
DGENRE=Country
TTITLE0=I Don't Wanta
TTITLE1=Let The Teardrops Fall
TTITLE2=Fingerprints
TTITLE3=A Church, A Courtroom, And Then Goodbye
TTITLE4=I Cried All The Way To The Altar
TTITLE5=Dear God
TTITLE6=The Heart You Break May Be Your Own
TTITLE7=Yes, I Understand
TTITLE8=Honky Tonk Merry-Go-Round
TTITLE9=Stop, Look, and Listen
TTITLE10=I Can't Forget You
TTITLE11=I Can See An Angel
TTITLE12=Just A Closer Walk With Thee
TTITLE13=Life's Railway To Heaven
TTITLE14=How Can I Face Tomorrow
EXTD=YEAR: 2007
EXTT0=
EXTT1=
EXTT2=
EXTT3=
EXTT4=
EXTT5=
EXTT6=
EXTT7=
EXTT8=
EXTT9=
EXTT10=
EXTT11=
EXTT12=
EXTT13=
EXTT14=
PLAYORDER=
